<svg width="128" height="128" viewBox="0 0 128 128" xmlns="http://www.w3.org/2000/svg" aria-label="Institute for Future Technologies logo">
  <rect width="128" height="128" fill="#007F7F"/>
  <path d="M39.0866 33.4495L36.8091 37.8811C36.8091 37.8811 34.6376 34.4881 35.7408 32.5504C36.6732 31.1021 38.0349 31.7704 38.232 31.9271C38.4291 32.0833 39.0281 32.412 39.0866 33.4495Z"/>
  <path d="M34.1204 39.6112L30.3553 32.3165H27.842L33.7583 43.7783C34.5679 43.1807 34.924 41.1686 34.1204 39.6112Z"/>
  <path d="M20.3832 57.4369V47.8145C20.3832 47.6221 20.4745 47.5262 20.6578 47.5262H22.1402C22.3141 47.5262 22.401 47.6221 22.401 47.8145V57.4369C22.401 57.62 22.3141 57.7114 22.1402 57.7114H20.6578C20.4745 57.7114 20.3832 57.62 20.3832 57.4369Z"/>
  <path d="M24.6244 47.828C24.6244 47.7456 24.6495 47.675 24.6999 47.6151C24.7502 47.5558 24.8256 47.526 24.9263 47.526H26.5325C26.6056 47.526 26.6811 47.542 26.7589 47.574C26.8366 47.6063 26.894 47.6589 26.9305 47.7319L31.4465 54.2246V47.7319C31.4741 47.6497 31.5174 47.5946 31.577 47.5673C31.6364 47.5397 31.6938 47.526 31.7486 47.526H33.1349C33.2081 47.526 33.2812 47.5535 33.3548 47.6084C33.4277 47.6632 33.4646 47.7366 33.4646 47.828V57.4091C33.4646 57.6108 33.3548 57.7112 33.1349 57.7112H31.776C31.6662 57.7112 31.5861 57.6907 31.536 57.6494C31.4854 57.6083 31.4328 57.5559 31.3781 57.4916L26.6149 50.6281V57.4091C26.6239 57.6108 26.5232 57.7112 26.3128 57.7112H24.9263C24.7249 57.7112 24.6244 57.6108 24.6244 57.4091V47.828Z"/>
  <path d="M35.2903 56.1602C35.2169 56.0778 35.1621 55.9954 35.1255 55.9132C35.0889 55.8308 35.121 55.7394 35.2219 55.6387L36.1415 54.7326C36.2237 54.6595 36.3038 54.6344 36.3817 54.657C36.4592 54.68 36.5395 54.7281 36.6219 54.8013C36.7592 54.9385 36.9123 55.0781 37.0816 55.2199C37.251 55.3619 37.4338 55.4899 37.631 55.6041C37.8274 55.7188 38.0403 55.8103 38.269 55.8789C38.4977 55.9473 38.7404 55.9819 38.9967 55.9819C39.2712 55.9819 39.5135 55.9453 39.7241 55.8719C39.9346 55.799 40.1154 55.7005 40.2662 55.5768C40.4173 55.4533 40.5317 55.3115 40.6094 55.1512C40.6873 54.9914 40.7261 54.8243 40.7261 54.6502C40.7261 54.4308 40.6595 54.2454 40.527 54.0944C40.3945 53.9433 40.2319 53.8153 40.0398 53.7099C39.8476 53.6049 39.6395 53.5177 39.4153 53.4491C39.1908 53.3807 38.9874 53.3233 38.8043 53.2775C37.6971 52.9481 36.8529 52.5433 36.2718 52.0628C35.6906 51.5795 35.4003 50.9533 35.4003 50.1753C35.4003 49.7545 35.4894 49.3702 35.6678 49.0223C35.8464 48.6746 36.0979 48.375 36.4228 48.1232C36.7475 47.8715 37.1388 47.6771 37.5964 47.5398C38.0541 47.4025 38.5573 47.3339 39.1064 47.3339C39.7104 47.3339 40.289 47.4759 40.8429 47.7595C41.3965 48.0431 41.8792 48.3908 42.291 48.8026C42.4558 48.9767 42.4511 49.155 42.2772 49.3379L41.5222 50.148C41.4308 50.2302 41.3439 50.2557 41.2615 50.2234C41.179 50.1913 41.0921 50.1387 41.0007 50.0656C40.891 49.9741 40.765 49.8734 40.6232 49.7635C40.4812 49.6538 40.3256 49.5508 40.1565 49.4546C39.9872 49.3587 39.8086 49.2787 39.6212 49.2144C39.4336 49.1505 39.2389 49.1184 39.0378 49.1184C38.8637 49.1184 38.6831 49.132 38.4957 49.1595C38.3078 49.1871 38.1387 49.2397 37.9877 49.3174C37.8366 49.3952 37.7109 49.505 37.6102 49.6468C37.5095 49.7888 37.4594 49.9787 37.4594 50.2166C37.4594 50.3905 37.5072 50.5415 37.6032 50.6695C37.6994 50.7978 37.8366 50.9098 38.0152 51.0059C38.1936 51.1019 38.404 51.1911 38.6467 51.2735C38.889 51.3559 39.1565 51.4383 39.4496 51.5205C39.9163 51.6578 40.3554 51.8111 40.7672 51.9804C41.179 52.15 41.5383 52.3579 41.8449 52.6049C42.1515 52.8519 42.3962 53.145 42.5793 53.4836C42.7622 53.8221 42.8539 54.2294 42.8539 54.7051C42.8539 55.181 42.7487 55.6134 42.5382 56.0024C42.3276 56.3914 42.0463 56.7229 41.6938 56.9976C41.3416 57.2722 40.9343 57.4826 40.4724 57.6289C40.0102 57.7752 39.532 57.8486 39.0378 57.8486C38.3241 57.8486 37.6377 57.6933 36.9787 57.3819C36.3199 57.0708 35.7572 56.6637 35.2903 56.1602Z" fill="white"/>
  <path d="M43.4854 49.0911V47.787C43.4854 47.6131 43.5723 47.5262 43.7462 47.5262H50.9528C51.1359 47.5262 51.2273 47.6131 51.2273 47.787V49.0911C51.2273 49.2742 51.1359 49.3656 50.9528 49.3656H48.3173V57.4369C48.3173 57.62 48.2301 57.7115 48.0565 57.7115H46.574C46.4002 57.7115 46.313 57.62 46.313 57.4369V49.3656H43.7462C43.5723 49.3656 43.4854 49.2742 43.4854 49.0911Z" fill="white"/>
  <path d="M52.6957 57.4369V47.8145C52.6957 47.6222 52.7869 47.5262 52.9702 47.5262H54.4527C54.6265 47.5262 54.7134 47.6222 54.7134 47.8145V57.4369C54.7134 57.62 54.6265 57.7115 54.4527 57.7115H52.9702C52.7869 57.7115 52.6957 57.62 52.6957 57.4369Z" fill="white"/>
  <path d="M56.1138 49.0911V47.787C56.1138 47.6131 56.2007 47.5262 56.3746 47.5262H63.5812C63.7643 47.5262 63.8557 47.6131 63.8557 47.787V49.0911C63.8557 49.2742 63.7643 49.3656 63.5812 49.3656H60.9457V57.4369C60.9457 57.62 60.8585 57.7115 60.6849 57.7115H59.2022C59.0286 57.7115 58.9414 57.62 58.9414 57.4369V49.3656H56.3746C56.2007 49.3656 56.1138 49.2742 56.1138 49.0911Z" fill="white"/>
  <path d="M67.1909 47.8282V53.6894C67.1909 54.0098 67.2435 54.3119 67.3487 54.5954C67.4537 54.8792 67.6027 55.1265 67.7948 55.3367C67.987 55.5473 68.218 55.7142 68.488 55.8377C68.7578 55.9614 69.0531 56.023 69.3735 56.023C69.6936 56.023 69.9865 55.9614 70.2518 55.8377C70.5173 55.7142 70.746 55.5473 70.9381 55.3367C71.1305 55.1265 71.2791 54.8792 71.3845 54.5954C71.4895 54.3119 71.5421 54.0098 71.5421 53.6894V47.8282C71.5421 47.7458 71.5719 47.6751 71.6315 47.6153C71.6909 47.5559 71.7663 47.5261 71.8579 47.5261H73.2169C73.2993 47.5261 73.377 47.5536 73.4504 47.6085C73.5235 47.6634 73.5601 47.7368 73.5601 47.8282V53.6894C73.5601 54.266 73.4504 54.8081 73.2307 55.3161C73.011 55.8241 72.7112 56.268 72.3316 56.6478C71.9516 57.0275 71.508 57.3271 71 57.5468C70.4922 57.7665 69.9499 57.8762 69.3735 57.8762C68.7969 57.8762 68.2523 57.7665 67.74 57.5468C67.2275 57.3271 66.7811 57.0275 66.4016 56.6478C66.0216 56.268 65.7222 55.8241 65.5025 55.3161C65.2828 54.8081 65.1729 54.266 65.1729 53.6894V47.8282C65.1729 47.755 65.2004 47.6864 65.2553 47.6223C65.3104 47.5584 65.379 47.5261 65.4614 47.5261H66.875C66.9482 47.5261 67.0193 47.5559 67.0879 47.6153C67.1566 47.6751 67.1909 47.7458 67.1909 47.8282Z" fill="white"/>
  <path d="M74.8231 49.0911V47.787C74.8231 47.6131 74.91 47.5262 75.0839 47.5262H82.2905C82.4736 47.5262 82.565 47.6131 82.565 47.787V49.0911C82.565 49.2742 82.4736 49.3656 82.2905 49.3656H79.655V57.4369C79.655 57.62 79.5678 57.7115 79.3942 57.7115H77.9115C77.7379 57.7115 77.6507 57.62 77.6507 57.4369V49.3656H75.0839C74.91 49.3656 74.8231 49.2742 74.8231 49.0911Z" fill="white"/>
  <path d="M84.0338 57.4369V47.8007C84.0338 47.6176 84.1208 47.5262 84.2946 47.5262H91.007C91.1901 47.5262 91.2815 47.6176 91.2815 47.8007V49.1321C91.2815 49.3155 91.1901 49.4067 91.007 49.4067H86.0378V51.4793H89.8264C90.0278 51.4793 90.1285 51.571 90.1285 51.7541V53.0582C90.1285 53.2413 90.0278 53.3325 89.8264 53.3325H86.0378V55.8445H91.1307C91.3229 55.8445 91.4188 55.9362 91.4188 56.1191V57.4369C91.4188 57.62 91.3229 57.7115 91.1307 57.7115H84.2946C84.1208 57.7115 84.0338 57.62 84.0338 57.4369Z" fill="white"/>
</svg>
